<svg width="261" height="260" viewBox="0 0 261 260" fill="none" xmlns="http://www.w3.org/2000/svg">
<path d="M130.321 178.316C157.241 178.316 179.064 156.525 179.064 129.645C179.064 102.765 157.241 80.9739 130.321 80.9739C103.4 80.9739 81.577 102.765 81.577 129.645C81.577 156.525 103.4 178.316 130.321 178.316Z" fill="#005757"/>
<path d="M13.8073 97.9179L13.2022 97.8113C7.85534 96.87 2.75659 100.435 1.8138 105.774L1.70711 106.378C0.764314 111.717 4.3345 116.808 9.68134 117.749L10.2864 117.856C15.6333 118.797 20.732 115.232 21.6748 109.893L21.7815 109.289C22.7243 103.95 19.1541 98.8593 13.8073 97.9179Z" fill="#005757"/>
<path d="M10.9561 139.509L10.351 139.615C5.00415 140.557 1.43396 145.648 2.37675 150.987L2.48345 151.591C3.42624 156.93 8.52499 160.495 13.8718 159.553L14.4769 159.447C19.8238 158.505 23.3939 153.414 22.4511 148.075L22.3445 147.471C21.4017 142.132 16.3029 138.567 10.9561 139.509Z" fill="#005757"/>
<path d="M21.5428 179.795L21.0107 180.102C16.3087 182.812 14.6977 188.816 17.4124 193.511L17.7196 194.042C20.4343 198.737 26.4466 200.346 31.1485 197.635L31.6806 197.328C36.3826 194.618 37.9936 188.614 35.2789 183.919L34.9717 183.388C32.257 178.693 26.2447 177.085 21.5428 179.795Z" fill="#005757"/>
<path d="M80.0589 20.4873L80.2691 21.0638C82.126 26.1581 87.7673 28.7847 92.8691 26.9306L93.4465 26.7207C98.5484 24.8666 101.179 19.2337 99.322 14.1394L99.1119 13.5629C97.2549 8.4686 91.6137 5.84195 86.5118 7.69613L85.9344 7.90596C80.8325 9.76013 78.202 15.393 80.0589 20.4873Z" fill="#005757"/>
<path d="M46.0042 44.1962L46.3991 44.6662C49.889 48.8191 56.0898 49.3608 60.2489 45.8761L60.7195 45.4818C64.8786 41.997 65.4211 35.8055 61.9312 31.6526L61.5363 31.1827C58.0464 27.0297 51.8456 26.4881 47.6865 29.9728L47.2159 30.3671C43.0568 33.8518 42.5143 40.0433 46.0042 44.1962Z" fill="#005757"/>
<path d="M246.204 159.445L246.809 159.551C252.156 160.493 257.255 156.928 258.198 151.589L258.304 150.985C259.247 145.646 255.677 140.555 250.33 139.613L249.725 139.507C244.378 138.565 239.279 142.13 238.337 147.469L238.23 148.073C237.287 153.412 240.857 158.503 246.204 159.445Z" fill="#005757"/>
<path d="M249.423 118.117L250.029 118.01C255.375 117.069 258.946 111.978 258.003 106.639L257.896 106.035C256.953 100.696 251.855 97.131 246.508 98.0723L245.903 98.1789C240.556 99.1203 236.986 104.211 237.928 109.55L238.035 110.154C238.978 115.493 244.077 119.058 249.423 118.117Z" fill="#005757"/>
<path d="M140.458 10.5746V9.96105C140.458 4.53981 136.057 0.14502 130.628 0.14502L130.013 0.14502C124.584 0.14502 120.183 4.53981 120.183 9.96105V10.5746C120.183 15.9958 124.584 20.3906 130.013 20.3906H130.628C136.057 20.3906 140.458 15.9958 140.458 10.5746Z" fill="#005757"/>
<path d="M180.858 21.2614L181.068 20.6849C182.925 15.5906 180.295 9.95771 175.193 8.10354L174.615 7.89371C169.513 6.03953 163.872 8.66617 162.015 13.7605L161.805 14.337C159.948 19.4313 162.579 25.0641 167.681 26.9183L168.258 27.1281C173.36 28.9823 179.001 26.3557 180.858 21.2614Z" fill="#005757"/>
<path d="M238.334 78.2185L238.866 77.9118C243.568 75.2012 245.179 69.1978 242.464 64.5029L242.157 63.9715C239.442 59.2766 233.43 57.668 228.728 60.3786L228.196 60.6854C223.494 63.396 221.883 69.3994 224.598 74.0943L224.905 74.6256C227.62 79.3206 233.632 80.9292 238.334 78.2185Z" fill="#005757"/>
<path d="M214.385 44.6255L214.779 44.1555C218.269 40.0026 217.727 33.8111 213.568 30.3264L213.097 29.932C208.938 26.4473 202.737 26.989 199.247 31.1419L198.852 31.6119C195.363 35.7648 195.905 41.9563 200.064 45.441L200.535 45.8354C204.694 49.3201 210.895 48.7784 214.385 44.6255Z" fill="#005757"/>
<path d="M21.8911 77.8931L22.4232 78.1999C27.1251 80.9105 33.1374 79.3019 35.8521 74.607L36.1593 74.0757C38.874 69.3807 37.263 63.3773 32.561 60.6667L32.0289 60.36C27.327 57.6494 21.3147 59.258 18.6 63.9529L18.2928 64.4842C15.5781 69.1791 17.1891 75.1825 21.8911 77.8931Z" fill="#005757"/>
<path d="M181.158 238.535L180.948 237.958C179.091 232.864 173.45 230.237 168.348 232.091L167.77 232.301C162.668 234.155 160.038 239.788 161.895 244.883L162.105 245.459C163.962 250.553 169.603 253.18 174.705 251.326L175.282 251.116C180.384 249.262 183.015 243.629 181.158 238.535Z" fill="#005757"/>
<path d="M215.558 214.416L215.163 213.946C211.673 209.793 205.473 209.251 201.314 212.736L200.843 213.13C196.684 216.615 196.141 222.807 199.631 226.96L200.026 227.43C203.516 231.583 209.717 232.124 213.876 228.639L214.347 228.245C218.506 224.76 219.048 218.569 215.558 214.416Z" fill="#005757"/>
<path d="M120.183 248.715V249.329C120.183 254.75 124.584 259.145 130.013 259.145H130.628C136.057 259.145 140.458 254.75 140.458 249.329V248.715C140.458 243.294 136.057 238.899 130.628 238.899H130.013C124.584 238.899 120.183 243.294 120.183 248.715Z" fill="#005757"/>
<path d="M80.1808 238.17L79.9707 238.746C78.1137 243.84 80.7443 249.473 85.8462 251.327L86.4235 251.537C91.5254 253.391 97.1667 250.765 99.0236 245.67L99.2338 245.094C101.091 240 98.4602 234.367 93.3583 232.513L92.7809 232.303C87.679 230.449 82.0378 233.075 80.1808 238.17Z" fill="#005757"/>
<path d="M45.4748 213.963L45.0799 214.433C41.59 218.586 42.1325 224.777 46.2916 228.262L46.7623 228.656C50.9214 232.141 57.1221 231.599 60.612 227.446L61.0069 226.976C64.4968 222.823 63.9544 216.632 59.7953 213.147L59.3246 212.753C55.1655 209.268 48.9647 209.81 45.4748 213.963Z" fill="#005757"/>
<path d="M239.536 180.007L239.004 179.7C234.302 176.989 228.289 178.598 225.575 183.293L225.267 183.824C222.553 188.519 224.164 194.522 228.866 197.233L229.398 197.54C234.1 200.25 240.112 198.642 242.827 193.947L243.134 193.415C245.849 188.721 244.238 182.717 239.536 180.007Z" fill="#005757"/>
</svg>
