<svg width="1491" height="259" viewBox="0 0 1491 259" fill="none" xmlns="http://www.w3.org/2000/svg">
<path d="M128.256 178.171C154.749 178.171 176.227 156.38 176.227 129.5C176.227 102.62 154.749 80.8289 128.256 80.8289C101.762 80.8289 80.2844 102.62 80.2844 129.5C80.2844 156.38 101.762 178.171 128.256 178.171Z" fill="#000000"/>
<path d="M13.5885 97.7729L12.993 97.6663C7.73087 96.7249 2.71291 100.29 1.78506 105.629L1.68006 106.233C0.752208 111.572 4.26582 116.663 9.52794 117.604L10.1234 117.711C15.3855 118.652 20.4035 115.087 21.3314 109.748L21.4364 109.144C22.3642 103.805 18.8506 98.7142 13.5885 97.7729Z" fill="#000000"/>
<path d="M10.7825 139.364L10.187 139.47C4.92484 140.412 1.41123 145.503 2.33908 150.842L2.44409 151.446C3.37194 156.785 8.3899 160.35 13.652 159.408L14.2475 159.302C19.5096 158.36 23.0232 153.269 22.0954 147.93L21.9904 147.326C21.0625 141.987 16.0446 138.422 10.7825 139.364Z" fill="#000000"/>
<path d="M21.2014 179.65L20.6778 179.957C16.0503 182.667 14.4649 188.671 17.1365 193.366L17.4388 193.897C20.1105 198.592 26.0276 200.201 30.655 197.49L31.1787 197.183C35.8061 194.473 37.3916 188.469 34.7199 183.774L34.4176 183.243C31.7459 178.548 25.8289 176.939 21.2014 179.65Z" fill="#000000"/>
<path d="M78.7903 20.3423L78.9971 20.9188C80.8247 26.0131 86.3765 28.6397 91.3976 26.7855L91.9658 26.5757C96.9868 24.7215 99.5757 19.0887 97.7482 13.9944L97.5414 13.4179C95.7139 8.32358 90.162 5.69694 85.141 7.55111L84.5727 7.76094C79.5517 9.61511 76.9628 15.248 78.7903 20.3423Z" fill="#000000"/>
<path d="M45.2752 44.0512L45.6639 44.5212C49.0985 48.6741 55.201 49.2158 59.2942 45.7311L59.7574 45.3367C63.8506 41.852 64.3845 35.6605 60.9499 31.5076L60.5612 31.0376C57.1266 26.8847 51.0241 26.343 46.9309 29.8277L46.4677 30.2221C42.3745 33.7068 41.8406 39.8983 45.2752 44.0512Z" fill="#000000"/>
<path d="M242.303 159.3L242.898 159.406C248.16 160.348 253.178 156.783 254.106 151.444L254.211 150.84C255.139 145.501 251.626 140.41 246.363 139.468L245.768 139.362C240.506 138.42 235.488 141.985 234.56 147.324L234.455 147.928C233.527 153.267 237.041 158.358 242.303 159.3Z" fill="#000000"/>
<path d="M245.471 117.972L246.067 117.865C251.329 116.924 254.842 111.833 253.914 106.494L253.809 105.89C252.882 100.551 247.864 96.9859 242.602 97.9273L242.006 98.0339C236.744 98.9752 233.23 104.066 234.158 109.405L234.263 110.009C235.191 115.348 240.209 118.913 245.471 117.972Z" fill="#000000"/>
<path d="M138.233 10.4295V9.81603C138.233 4.39479 133.901 0 128.558 0L127.953 0C122.61 0 118.278 4.39479 118.278 9.81603V10.4295C118.278 15.8508 122.61 20.2456 127.953 20.2456H128.558C133.901 20.2456 138.233 15.8508 138.233 10.4295Z" fill="#000000"/>
<path d="M177.992 21.1163L178.199 20.5398C180.027 15.4455 177.438 9.81266 172.417 7.95849L171.848 7.74866C166.827 5.89448 161.275 8.52112 159.448 13.6154L159.241 14.1919C157.414 19.2862 160.002 24.9191 165.024 26.7733L165.592 26.9831C170.613 28.8373 176.165 26.2106 177.992 21.1163Z" fill="#000000"/>
<path d="M234.557 78.0736L235.081 77.7668C239.708 75.0562 241.294 69.0528 238.622 64.3579L238.32 63.8266C235.648 59.1316 229.731 57.523 225.104 60.2336L224.58 60.5404C219.953 63.251 218.367 69.2544 221.039 73.9493L221.341 74.4806C224.013 79.1756 229.93 80.7842 234.557 78.0736Z" fill="#000000"/>
<path d="M210.987 44.4805L211.376 44.0105C214.811 39.8576 214.277 33.6661 210.184 30.1814L209.72 29.787C205.627 26.3023 199.525 26.844 196.09 30.9969L195.701 31.4669C192.267 35.6198 192.801 41.8113 196.894 45.296L197.357 45.6904C201.45 49.1751 207.553 48.6334 210.987 44.4805Z" fill="#000000"/>
<path d="M21.5442 77.7481L22.0678 78.0548C26.6953 80.7655 32.6123 79.1569 35.284 74.4619L35.5863 73.9306C38.258 69.2357 36.6725 63.2323 32.0451 60.5217L31.5214 60.2149C26.894 57.5043 20.9769 59.1129 18.3053 63.8078L18.0029 64.3391C15.3313 69.0341 16.9167 75.0375 21.5442 77.7481Z" fill="#000000"/>
<path d="M178.287 238.39L178.08 237.813C176.253 232.719 170.701 230.092 165.68 231.946L165.112 232.156C160.091 234.01 157.502 239.643 159.329 244.737L159.536 245.314C161.364 250.408 166.916 253.035 171.937 251.181L172.505 250.971C177.526 249.117 180.115 243.484 178.287 238.39Z" fill="#000000"/>
<path d="M212.143 214.271L211.754 213.801C208.319 209.648 202.217 209.106 198.124 212.591L197.66 212.985C193.567 216.47 193.033 222.662 196.468 226.815L196.857 227.285C200.291 231.437 206.394 231.979 210.487 228.494L210.95 228.1C215.043 224.615 215.577 218.424 212.143 214.271Z" fill="#000000"/>
<path d="M118.278 248.57V249.184C118.278 254.605 122.61 259 127.953 259H128.558C133.901 259 138.233 254.605 138.233 249.184V248.57C138.233 243.149 133.901 238.754 128.558 238.754H127.953C122.61 238.754 118.278 243.149 118.278 248.57Z" fill="#000000"/>
<path d="M78.9103 238.025L78.7035 238.601C76.876 243.695 79.4648 249.328 84.4859 251.182L85.0541 251.392C90.0751 253.246 95.627 250.62 97.4545 245.525L97.6613 244.949C99.4888 239.855 96.9 234.222 91.8789 232.368L91.3107 232.158C86.2897 230.304 80.7378 232.93 78.9103 238.025Z" fill="#000000"/>
<path d="M44.7542 213.818L44.3656 214.288C40.931 218.441 41.4649 224.632 45.5581 228.117L46.0213 228.511C50.1145 231.996 56.217 231.454 59.6516 227.301L60.0402 226.831C63.4748 222.678 62.941 216.487 58.8478 213.002L58.3845 212.608C54.2913 209.123 48.1888 209.665 44.7542 213.818Z" fill="#000000"/>
<path d="M235.74 179.861L235.216 179.555C230.589 176.844 224.672 178.453 222 183.148L221.698 183.679C219.026 188.374 220.612 194.377 225.239 197.088L225.763 197.395C230.39 200.105 236.307 198.497 238.979 193.802L239.281 193.27C241.953 188.576 240.367 182.572 235.74 179.861Z" fill="#000000"/>
<path d="M310.869 188.959V68.201H389.679V89.2645H336.014V118.048H384.439V139.112H336.014V189.01H310.869V188.959Z" fill="#000000"/>
<path d="M439.968 190.748C430.949 190.748 423.138 188.805 416.587 184.869C410.037 180.983 404.947 175.513 401.37 168.457C397.792 161.453 396.028 153.273 396.028 144.02C396.028 134.766 397.792 126.484 401.37 119.479C404.947 112.475 409.986 107.005 416.587 103.068C423.138 99.1828 430.949 97.1889 439.968 97.1889C448.988 97.1889 456.799 99.1317 463.349 103.068C469.9 107.005 474.99 112.424 478.567 119.479C482.145 126.484 483.909 134.664 483.909 144.02C483.909 153.375 482.145 161.453 478.567 168.457C474.99 175.461 469.95 180.932 463.349 184.869C456.799 188.805 448.988 190.748 439.968 190.748ZM440.069 171.269C444.151 171.269 447.628 170.093 450.349 167.69C453.12 165.288 455.186 162.067 456.597 157.926C458.008 153.784 458.714 149.081 458.714 143.815C458.714 138.549 458.008 133.846 456.597 129.704C455.186 125.563 453.12 122.291 450.349 119.94C447.577 117.537 444.151 116.361 440.069 116.361C435.988 116.361 432.46 117.537 429.638 119.94C426.817 122.342 424.7 125.614 423.289 129.704C421.878 133.846 421.173 138.549 421.173 143.815C421.173 149.081 421.878 153.784 423.289 157.926C424.7 162.067 426.817 165.288 429.638 167.69C432.46 170.093 435.937 171.269 440.069 171.269Z" fill="#000000"/>
<path d="M540.396 190.748C531.275 190.748 523.414 188.754 516.813 184.817C510.262 180.881 505.223 175.359 501.696 168.355C498.169 161.3 496.456 153.222 496.456 144.071C496.456 134.919 498.219 126.637 501.797 119.633C505.324 112.629 510.363 107.158 516.914 103.171C523.465 99.2339 531.225 97.24 540.295 97.24C548.105 97.24 554.908 98.6715 560.753 101.535C566.598 104.398 571.234 108.436 574.661 113.6C578.087 118.764 579.952 124.899 580.305 131.903H556.924C556.269 127.404 554.555 123.723 551.733 120.962C548.912 118.201 545.233 116.821 540.698 116.821C536.868 116.821 533.543 117.895 530.67 119.991C527.798 122.087 525.581 125.154 524.019 129.142C522.406 133.13 521.651 137.987 521.651 143.713C521.651 149.439 522.457 154.398 524.019 158.437C525.581 162.476 527.798 165.594 530.67 167.69C533.543 169.838 536.868 170.86 540.748 170.86C543.57 170.86 546.14 170.247 548.408 169.071C550.675 167.895 552.54 166.157 554.051 163.907C555.563 161.658 556.52 158.948 556.974 155.727H580.355C579.952 162.629 578.138 168.713 574.812 173.979C571.486 179.245 566.951 183.335 561.106 186.249C555.311 189.214 548.408 190.646 540.496 190.646L540.396 190.748Z" fill="#000000"/>
<path d="M636.54 190.748C627.52 190.748 619.71 188.805 613.159 184.869C606.608 180.983 601.519 175.513 597.941 168.457C594.363 161.453 592.6 153.273 592.6 144.02C592.6 134.766 594.363 126.484 597.941 119.479C601.519 112.475 606.558 107.005 613.159 103.068C619.71 99.1828 627.52 97.1889 636.54 97.1889C645.56 97.1889 653.37 99.1317 659.921 103.068C666.472 107.005 671.561 112.424 675.139 119.479C678.716 126.484 680.48 134.664 680.48 144.02C680.48 153.375 678.716 161.453 675.139 168.457C671.561 175.461 666.522 180.932 659.921 184.869C653.37 188.805 645.56 190.748 636.54 190.748ZM636.641 171.269C640.722 171.269 644.199 170.093 646.92 167.69C649.692 165.288 651.758 162.067 653.169 157.926C654.58 153.784 655.285 149.081 655.285 143.815C655.285 138.549 654.58 133.846 653.169 129.704C651.758 125.563 649.692 122.291 646.92 119.94C644.149 117.537 640.722 116.361 636.641 116.361C632.559 116.361 629.032 117.537 626.21 119.94C623.388 122.342 621.272 125.614 619.861 129.704C618.45 133.846 617.744 138.549 617.744 143.815C617.744 149.081 618.45 153.784 619.861 157.926C621.272 162.067 623.388 165.288 626.21 167.69C629.032 170.093 632.509 171.269 636.641 171.269Z" fill="#000000"/>
<path d="M802.122 68.201H769.67L728.603 188.959H755.561L764.379 161.402H807.362L816.18 188.959H843.139L802.122 68.201ZM770.779 141.514L785.442 95.8085H786.35L800.963 141.514H770.779Z" fill="#000000"/>
<path d="M893.126 190.748C884.005 190.748 876.145 188.754 869.543 184.817C862.993 180.881 857.954 175.359 854.426 168.355C850.899 161.3 849.186 153.222 849.186 144.071C849.186 134.919 850.95 126.637 854.527 119.633C858.055 112.629 863.094 107.158 869.644 103.171C876.195 99.2339 883.955 97.24 893.025 97.24C900.836 97.24 907.638 98.6715 913.484 101.535C919.329 104.398 923.965 108.436 927.391 113.6C930.818 118.764 932.682 124.899 933.035 131.903H909.654C908.999 127.404 907.286 123.723 904.464 120.962C901.642 118.201 897.963 116.821 893.428 116.821C889.599 116.821 886.273 117.895 883.401 119.991C880.528 122.087 878.311 125.154 876.749 129.142C875.137 133.13 874.381 137.987 874.381 143.713C874.381 149.439 875.187 154.398 876.749 158.437C878.311 162.476 880.528 165.594 883.401 167.69C886.273 169.838 889.599 170.86 893.479 170.86C896.301 170.86 898.87 170.247 901.138 169.071C903.406 167.895 905.27 166.157 906.782 163.907C908.293 161.658 909.251 158.948 909.704 155.727H933.085C932.682 162.629 930.868 168.713 927.542 173.979C924.217 179.245 919.681 183.335 913.836 186.249C908.041 189.214 901.138 190.646 893.227 190.646L893.126 190.748Z" fill="#000000"/>
<path d="M1030.54 150.103V143.202C1030.54 135.482 1029.48 128.784 1027.37 123.007C1025.25 117.23 1022.23 112.475 1018.45 108.641C1014.62 104.807 1010.18 101.944 1005.09 100.052C1000 98.1603 994.511 97.1889 988.615 97.1889C979.847 97.1889 972.238 99.1828 965.738 103.119C959.238 107.056 954.199 112.526 950.671 119.582C947.094 126.586 945.33 134.766 945.33 144.122C945.33 153.478 947.094 161.913 950.671 168.917C954.249 175.87 959.339 181.29 965.94 185.073C972.541 188.856 980.452 190.748 989.623 190.748C996.98 190.748 1003.48 189.572 1009.12 187.271C1014.77 184.971 1019.35 181.75 1022.93 177.609C1026.51 173.468 1028.88 168.611 1030.04 162.987L1007.16 161.453C1006.3 163.703 1005.04 165.645 1003.43 167.23C1001.82 168.815 999.852 169.991 997.534 170.758C995.267 171.525 992.747 171.934 989.976 171.934C985.844 171.934 982.266 171.065 979.243 169.275C976.219 167.486 973.901 164.981 972.238 161.709C970.576 158.437 969.769 154.602 969.769 150.103L1030.59 150.052L1030.54 150.103ZM972.289 125.614C973.901 122.7 976.169 120.349 979.041 118.61C981.913 116.872 985.239 116.003 989.018 116.003C992.798 116.003 995.771 116.821 998.492 118.406C1001.21 119.991 1003.38 122.189 1004.94 125.001C1006.5 127.762 1007.26 130.983 1007.26 134.613H969.82C969.971 131.34 970.777 128.375 972.289 125.666V125.614Z" fill="#000000"/>
<path d="M1120.99 124.234L1098.31 125.666C1097.91 123.723 1097.1 121.933 1095.79 120.349C1094.53 118.764 1092.82 117.486 1090.76 116.514C1088.69 115.543 1086.22 115.083 1083.35 115.083C1079.52 115.083 1076.29 115.901 1073.62 117.537C1071 119.173 1069.69 121.32 1069.69 124.03C1069.69 126.177 1070.55 128.017 1072.26 129.5C1073.98 130.983 1076.9 132.21 1081.03 133.079L1097.21 136.402C1105.87 138.191 1112.37 141.105 1116.61 145.144C1120.89 149.132 1123.01 154.398 1123.01 160.942C1123.01 166.872 1121.29 172.087 1117.87 176.586C1114.44 181.085 1109.75 184.562 1103.81 187.067C1097.86 189.572 1091.01 190.799 1083.25 190.799C1071.41 190.799 1062.03 188.294 1055.03 183.284C1048.02 178.273 1043.94 171.423 1042.73 162.782L1067.07 161.504C1067.83 165.185 1069.59 167.946 1072.41 169.838C1075.24 171.729 1078.86 172.701 1083.3 172.701C1087.73 172.701 1091.11 171.832 1093.78 170.144C1096.45 168.457 1097.76 166.208 1097.81 163.498C1097.81 161.198 1096.8 159.357 1094.94 157.874C1093.07 156.392 1090.2 155.267 1086.32 154.5L1070.85 151.382C1062.13 149.592 1055.63 146.525 1051.4 142.179C1047.17 137.833 1045.05 132.261 1045.05 125.512C1045.05 119.684 1046.61 114.674 1049.74 110.481C1052.86 106.289 1057.25 103.017 1062.94 100.768C1068.63 98.467 1075.29 97.3423 1082.89 97.3423C1094.18 97.3423 1103.05 99.7451 1109.55 104.602C1116.05 109.459 1119.83 116.003 1120.89 124.336L1120.99 124.234Z" fill="#000000"/>
<path d="M1212.9 124.234L1190.23 125.666C1189.82 123.723 1189.02 121.933 1187.71 120.349C1186.45 118.764 1184.73 117.486 1182.67 116.514C1180.6 115.543 1178.13 115.083 1175.26 115.083C1171.43 115.083 1168.21 115.901 1165.53 117.537C1162.91 119.173 1161.6 121.32 1161.6 124.03C1161.6 126.177 1162.46 128.017 1164.17 129.5C1165.89 130.983 1168.81 132.21 1172.94 133.079L1189.12 136.402C1197.78 138.191 1204.28 141.105 1208.52 145.144C1212.8 149.132 1214.92 154.398 1214.92 160.942C1214.92 166.872 1213.2 172.087 1209.78 176.586C1206.35 181.085 1201.66 184.562 1195.72 187.067C1189.77 189.572 1182.92 190.799 1175.16 190.799C1163.32 190.799 1153.94 188.294 1146.94 183.284C1139.94 178.273 1135.85 171.423 1134.65 162.782L1158.98 161.504C1159.74 165.185 1161.5 167.946 1164.33 169.838C1167.15 171.729 1170.78 172.701 1175.21 172.701C1179.64 172.701 1183.02 171.832 1185.69 170.144C1188.36 168.457 1189.67 166.208 1189.72 163.498C1189.72 161.198 1188.71 159.357 1186.85 157.874C1184.99 156.392 1182.11 155.267 1178.23 154.5L1162.76 151.382C1154.05 149.592 1147.55 146.525 1143.31 142.179C1139.08 137.833 1136.96 132.261 1136.96 125.512C1136.96 119.684 1138.53 114.674 1141.65 110.481C1144.77 106.289 1149.16 103.017 1154.85 100.768C1160.55 98.467 1167.2 97.3423 1174.81 97.3423C1186.09 97.3423 1194.96 99.7451 1201.46 104.602C1207.96 109.459 1211.74 116.003 1212.8 124.336L1212.9 124.234Z" fill="#000000"/>
<path d="M1230.59 188.959V98.3648H1255.33V188.959H1230.59ZM1234.12 86.7083L1246.41 68.201H1269.29L1251.55 86.7083H1234.06H1234.12Z" fill="#000000"/>
<path d="M1358.33 98.4159L1327.14 189.01H1299.22L1268.03 98.4159H1294.18L1312.72 163.243H1313.63L1332.12 98.4159H1358.33Z" fill="#000000"/>
<path d="M1449.68 150.103V143.202C1449.68 135.482 1448.63 128.784 1446.51 123.007C1444.39 117.23 1441.42 112.475 1437.59 108.641C1433.76 104.807 1429.33 101.944 1424.24 100.052C1419.15 98.1603 1413.66 97.1889 1407.76 97.1889C1398.99 97.1889 1391.38 99.1828 1384.88 103.119C1378.38 107.056 1373.34 112.526 1369.82 119.582C1366.24 126.586 1364.47 134.766 1364.47 144.122C1364.47 153.478 1366.24 161.913 1369.82 168.917C1373.39 175.87 1378.48 181.29 1385.08 185.073C1391.68 188.856 1399.6 190.748 1408.77 190.748C1416.12 190.748 1422.62 189.572 1428.27 187.271C1433.91 184.971 1438.55 181.75 1442.13 177.609C1445.7 173.468 1448.07 168.611 1449.23 162.987L1426.35 161.453C1425.5 163.703 1424.24 165.645 1422.62 167.23C1421.01 168.815 1419.05 169.991 1416.73 170.758C1414.46 171.525 1411.94 171.934 1409.17 171.934C1405.04 171.934 1401.46 171.065 1398.44 169.275C1395.41 167.486 1393.1 164.981 1391.43 161.709C1389.77 158.437 1388.96 154.602 1388.96 150.103L1449.73 150.052L1449.68 150.103ZM1391.38 125.614C1393.05 122.7 1395.26 120.349 1398.19 118.61C1401.06 116.872 1404.38 116.003 1408.16 116.003C1411.94 116.003 1414.91 116.821 1417.64 118.406C1420.36 119.991 1422.52 122.189 1424.04 125.001C1425.6 127.762 1426.35 130.983 1426.35 134.613H1388.91C1389.06 131.34 1389.87 128.375 1391.38 125.666V125.614Z" fill="#000000"/>
<path d="M1490.6 68.201V188.959H1465.86V68.201H1490.6Z" fill="#000000"/>
</svg>
