<svg width="762" height="608" viewBox="0 0 762 608" fill="none" xmlns="http://www.w3.org/2000/svg">
<path d="M128.256 178.171C154.749 178.171 176.227 156.38 176.227 129.5C176.227 102.62 154.749 80.8289 128.256 80.8289C101.762 80.8289 80.2844 102.62 80.2844 129.5C80.2844 156.38 101.762 178.171 128.256 178.171Z" fill="#005757"/>
<path d="M13.5885 97.7729L12.993 97.6663C7.73087 96.7249 2.71291 100.29 1.78506 105.629L1.68006 106.233C0.752208 111.572 4.26582 116.663 9.52794 117.604L10.1234 117.711C15.3855 118.652 20.4035 115.087 21.3314 109.748L21.4364 109.144C22.3642 103.805 18.8506 98.7142 13.5885 97.7729Z" fill="#005757"/>
<path d="M10.7825 139.364L10.187 139.47C4.92484 140.412 1.41123 145.503 2.33908 150.842L2.44409 151.446C3.37194 156.785 8.3899 160.35 13.652 159.408L14.2475 159.302C19.5096 158.36 23.0232 153.269 22.0954 147.93L21.9904 147.326C21.0625 141.987 16.0446 138.422 10.7825 139.364Z" fill="#005757"/>
<path d="M21.2014 179.65L20.6778 179.957C16.0503 182.667 14.4649 188.671 17.1365 193.366L17.4388 193.897C20.1105 198.592 26.0276 200.201 30.655 197.49L31.1787 197.183C35.8061 194.473 37.3916 188.469 34.7199 183.774L34.4176 183.243C31.7459 178.548 25.8289 176.939 21.2014 179.65Z" fill="#005757"/>
<path d="M78.7903 20.3423L78.9971 20.9188C80.8247 26.0131 86.3765 28.6397 91.3976 26.7855L91.9658 26.5757C96.9868 24.7215 99.5757 19.0887 97.7482 13.9944L97.5414 13.4179C95.7139 8.32358 90.162 5.69694 85.141 7.55111L84.5727 7.76094C79.5517 9.61511 76.9628 15.248 78.7903 20.3423Z" fill="#005757"/>
<path d="M45.2752 44.0512L45.6639 44.5212C49.0985 48.6741 55.201 49.2158 59.2942 45.7311L59.7574 45.3367C63.8506 41.852 64.3845 35.6605 60.9499 31.5076L60.5612 31.0376C57.1266 26.8847 51.0241 26.343 46.9309 29.8277L46.4677 30.2221C42.3745 33.7068 41.8406 39.8983 45.2752 44.0512Z" fill="#005757"/>
<path d="M242.303 159.3L242.898 159.406C248.16 160.348 253.178 156.783 254.106 151.444L254.211 150.84C255.139 145.501 251.626 140.41 246.363 139.468L245.768 139.362C240.506 138.42 235.488 141.985 234.56 147.324L234.455 147.928C233.527 153.267 237.041 158.358 242.303 159.3Z" fill="#005757"/>
<path d="M245.471 117.972L246.067 117.865C251.329 116.924 254.842 111.833 253.914 106.494L253.809 105.89C252.882 100.551 247.864 96.9859 242.602 97.9273L242.006 98.0339C236.744 98.9752 233.23 104.066 234.158 109.405L234.263 110.009C235.191 115.348 240.209 118.913 245.471 117.972Z" fill="#005757"/>
<path d="M138.233 10.4295V9.81603C138.233 4.39479 133.901 0 128.558 0L127.953 0C122.61 0 118.278 4.39479 118.278 9.81603V10.4295C118.278 15.8508 122.61 20.2456 127.953 20.2456H128.558C133.901 20.2456 138.233 15.8508 138.233 10.4295Z" fill="#005757"/>
<path d="M177.992 21.1163L178.199 20.5398C180.027 15.4455 177.438 9.81266 172.417 7.95849L171.848 7.74866C166.827 5.89448 161.275 8.52112 159.448 13.6154L159.241 14.1919C157.414 19.2862 160.002 24.9191 165.024 26.7733L165.592 26.9831C170.613 28.8373 176.165 26.2106 177.992 21.1163Z" fill="#005757"/>
<path d="M234.557 78.0736L235.081 77.7668C239.708 75.0562 241.294 69.0528 238.622 64.3579L238.32 63.8266C235.648 59.1316 229.731 57.523 225.104 60.2336L224.58 60.5404C219.953 63.251 218.367 69.2544 221.039 73.9493L221.341 74.4806C224.013 79.1756 229.93 80.7842 234.557 78.0736Z" fill="#005757"/>
<path d="M210.987 44.4805L211.376 44.0105C214.811 39.8576 214.277 33.6661 210.184 30.1814L209.72 29.787C205.627 26.3023 199.525 26.844 196.09 30.9969L195.701 31.4669C192.267 35.6198 192.801 41.8113 196.894 45.296L197.357 45.6904C201.45 49.1751 207.553 48.6334 210.987 44.4805Z" fill="#005757"/>
<path d="M21.5442 77.7481L22.0678 78.0548C26.6953 80.7655 32.6123 79.1569 35.284 74.4619L35.5863 73.9306C38.258 69.2357 36.6725 63.2323 32.0451 60.5217L31.5214 60.2149C26.894 57.5043 20.9769 59.1129 18.3053 63.8078L18.0029 64.3391C15.3313 69.0341 16.9167 75.0375 21.5442 77.7481Z" fill="#005757"/>
<path d="M178.287 238.39L178.08 237.813C176.253 232.719 170.701 230.092 165.68 231.946L165.112 232.156C160.091 234.01 157.502 239.643 159.329 244.737L159.536 245.314C161.364 250.408 166.916 253.035 171.937 251.181L172.505 250.971C177.526 249.117 180.115 243.484 178.287 238.39Z" fill="#005757"/>
<path d="M212.143 214.271L211.754 213.801C208.319 209.648 202.217 209.106 198.124 212.591L197.66 212.985C193.567 216.47 193.033 222.662 196.468 226.815L196.857 227.285C200.291 231.437 206.394 231.979 210.487 228.494L210.95 228.1C215.043 224.615 215.577 218.424 212.143 214.271Z" fill="#005757"/>
<path d="M118.278 248.57V249.184C118.278 254.605 122.61 259 127.953 259H128.558C133.901 259 138.233 254.605 138.233 249.184V248.57C138.233 243.149 133.901 238.754 128.558 238.754H127.953C122.61 238.754 118.278 243.149 118.278 248.57Z" fill="#005757"/>
<path d="M78.9103 238.025L78.7035 238.601C76.876 243.695 79.4648 249.328 84.4859 251.182L85.0541 251.392C90.0751 253.246 95.627 250.62 97.4545 245.525L97.6613 244.949C99.4888 239.855 96.9 234.222 91.8789 232.368L91.3107 232.158C86.2897 230.304 80.7378 232.93 78.9103 238.025Z" fill="#005757"/>
<path d="M44.7542 213.818L44.3656 214.288C40.931 218.441 41.4649 224.632 45.5581 228.117L46.0213 228.511C50.1145 231.996 56.217 231.454 59.6516 227.301L60.0402 226.831C63.4748 222.678 62.941 216.487 58.8478 213.002L58.3845 212.608C54.2913 209.123 48.1888 209.665 44.7542 213.818Z" fill="#005757"/>
<path d="M235.74 179.861L235.216 179.555C230.589 176.844 224.672 178.453 222 183.148L221.698 183.679C219.026 188.374 220.612 194.377 225.239 197.088L225.763 197.395C230.39 200.105 236.307 198.497 238.979 193.802L239.281 193.27C241.953 188.576 240.367 182.572 235.74 179.861Z" fill="#005757"/>
<path d="M0 434.758V314H78.81V335.064H25.1446V363.847H73.5695V384.911H25.1446V434.809H0V434.758Z" fill="#005757"/>
<path d="M129.099 436.547C120.079 436.547 112.269 434.604 105.718 430.668C99.1676 426.782 94.0781 421.312 90.5004 414.256C86.9228 407.252 85.1591 399.072 85.1591 389.819C85.1591 380.565 86.9228 372.283 90.5004 365.278C94.0781 358.274 99.1172 352.804 105.718 348.867C112.269 344.982 120.079 342.988 129.099 342.988C138.119 342.988 145.929 344.931 152.48 348.867C159.031 352.804 164.12 358.223 167.698 365.278C171.276 372.283 173.039 380.463 173.039 389.819C173.039 399.174 171.276 407.252 167.698 414.256C164.12 421.261 159.081 426.731 152.48 430.668C145.929 434.604 138.119 436.547 129.099 436.547ZM129.2 417.068C133.282 417.068 136.759 415.892 139.48 413.489C142.251 411.087 144.317 407.866 145.728 403.725C147.139 399.583 147.844 394.88 147.844 389.614C147.844 384.348 147.139 379.645 145.728 375.504C144.317 371.362 142.251 368.09 139.48 365.739C136.708 363.336 133.282 362.16 129.2 362.16C125.118 362.16 121.591 363.336 118.769 365.739C115.947 368.141 113.831 371.413 112.42 375.504C111.009 379.645 110.304 384.348 110.304 389.614C110.304 394.88 111.009 399.583 112.42 403.725C113.831 407.866 115.947 411.087 118.769 413.489C121.591 415.892 125.068 417.068 129.2 417.068Z" fill="#005757"/>
<path d="M229.527 436.547C220.406 436.547 212.545 434.553 205.944 430.616C199.393 426.68 194.354 421.158 190.827 414.154C187.3 407.099 185.586 399.021 185.586 389.87C185.586 380.718 187.35 372.436 190.928 365.432C194.455 358.428 199.494 352.957 206.045 348.97C212.596 345.033 220.356 343.039 229.426 343.039C237.236 343.039 244.039 344.471 249.884 347.334C255.729 350.197 260.365 354.235 263.792 359.399C267.218 364.563 269.083 370.698 269.435 377.702H246.055C245.399 373.203 243.686 369.522 240.864 366.761C238.043 364 234.364 362.62 229.829 362.62C225.999 362.62 222.674 363.694 219.801 365.79C216.929 367.886 214.712 370.953 213.15 374.941C211.537 378.929 210.782 383.786 210.782 389.512C210.782 395.238 211.588 400.197 213.15 404.236C214.712 408.275 216.929 411.393 219.801 413.49C222.674 415.637 225.999 416.659 229.879 416.659C232.701 416.659 235.271 416.046 237.539 414.87C239.806 413.694 241.671 411.956 243.182 409.706C244.694 407.457 245.651 404.747 246.105 401.526H269.486C269.083 408.428 267.269 414.512 263.943 419.778C260.617 425.044 256.082 429.134 250.237 432.048C244.442 435.013 237.539 436.445 229.627 436.445L229.527 436.547Z" fill="#005757"/>
<path d="M325.671 436.547C316.651 436.547 308.841 434.604 302.29 430.668C295.739 426.782 290.65 421.312 287.072 414.256C283.494 407.252 281.731 399.072 281.731 389.819C281.731 380.565 283.494 372.283 287.072 365.278C290.65 358.274 295.689 352.804 302.29 348.867C308.841 344.982 316.651 342.988 325.671 342.988C334.691 342.988 342.501 344.931 349.052 348.867C355.602 352.804 360.692 358.223 364.27 365.278C367.847 372.283 369.611 380.463 369.611 389.819C369.611 399.174 367.847 407.252 364.27 414.256C360.692 421.261 355.653 426.731 349.052 430.668C342.501 434.604 334.691 436.547 325.671 436.547ZM325.772 417.068C329.853 417.068 333.33 415.892 336.051 413.489C338.823 411.087 340.889 407.866 342.3 403.725C343.71 399.583 344.416 394.88 344.416 389.614C344.416 384.348 343.71 379.645 342.3 375.504C340.889 371.362 338.823 368.09 336.051 365.739C333.28 363.336 329.853 362.16 325.772 362.16C321.69 362.16 318.163 363.336 315.341 365.739C312.519 368.141 310.403 371.413 308.992 375.504C307.581 379.645 306.875 384.348 306.875 389.614C306.875 394.88 307.581 399.583 308.992 403.725C310.403 407.866 312.519 411.087 315.341 413.489C318.163 415.892 321.64 417.068 325.772 417.068Z" fill="#005757"/>
<path d="M73.519 484.547H41.0678L0 605.305H26.9587L35.777 577.748H78.7596L87.5779 605.305H114.537L73.519 484.547ZM42.1764 557.86L56.8399 512.155H57.747L72.3601 557.86H42.1764Z" fill="#005757"/>
<path d="M164.523 607.094C155.403 607.094 147.542 605.1 140.941 601.163C134.39 597.227 129.351 591.705 125.824 584.701C122.297 577.646 120.583 569.568 120.583 560.417C120.583 551.265 122.347 542.983 125.925 535.979C129.452 528.975 134.491 523.504 141.042 519.517C147.592 515.58 155.352 513.586 164.423 513.586C172.233 513.586 179.036 515.018 184.881 517.881C190.726 520.744 195.362 524.782 198.789 529.946C202.215 535.11 204.08 541.245 204.432 548.249H181.051C180.396 543.75 178.683 540.069 175.861 537.308C173.039 534.547 169.361 533.167 164.826 533.167C160.996 533.167 157.67 534.241 154.798 536.337C151.926 538.433 149.709 541.5 148.147 545.488C146.534 549.476 145.778 554.333 145.778 560.059C145.778 565.785 146.585 570.744 148.147 574.783C149.709 578.822 151.926 581.94 154.798 584.037C157.67 586.184 160.996 587.206 164.876 587.206C167.698 587.206 170.268 586.593 172.535 585.417C174.803 584.241 176.667 582.503 178.179 580.253C179.691 578.004 180.648 575.294 181.102 572.073H204.483C204.08 578.975 202.266 585.059 198.94 590.325C195.614 595.591 191.079 599.681 185.234 602.595C179.439 605.56 172.535 606.992 164.624 606.992L164.523 607.094Z" fill="#005757"/>
<path d="M301.937 566.449V559.548C301.937 551.828 300.879 545.13 298.763 539.353C296.646 533.576 293.623 528.821 289.844 524.987C286.014 521.153 281.58 518.29 276.49 516.398C271.401 514.506 265.908 513.535 260.013 513.535C251.245 513.535 243.636 515.529 237.136 519.465C230.635 523.402 225.596 528.872 222.069 535.928C218.491 542.932 216.728 551.112 216.728 560.468C216.728 569.824 218.491 578.259 222.069 585.263C225.647 592.217 230.736 597.636 237.337 601.419C243.938 605.202 251.849 607.094 261.02 607.094C268.377 607.094 274.878 605.918 280.521 603.617C286.165 601.317 290.751 598.096 294.328 593.955C297.906 589.814 300.274 584.957 301.433 579.333L278.556 577.799C277.699 580.049 276.44 581.991 274.827 583.576C273.215 585.161 271.25 586.337 268.932 587.104C266.664 587.871 264.145 588.28 261.373 588.28C257.241 588.28 253.663 587.411 250.64 585.621C247.617 583.832 245.299 581.327 243.636 578.055C241.973 574.783 241.167 570.948 241.167 566.449L301.988 566.398L301.937 566.449ZM243.686 541.96C245.299 539.046 247.566 536.695 250.438 534.956C253.311 533.218 256.637 532.349 260.416 532.349C264.195 532.349 267.168 533.167 269.889 534.752C272.61 536.337 274.777 538.535 276.339 541.347C277.901 544.108 278.657 547.329 278.657 550.959H241.217C241.368 547.687 242.175 544.721 243.686 542.012V541.96Z" fill="#005757"/>
<path d="M392.387 540.58L369.712 542.012C369.308 540.069 368.502 538.279 367.192 536.695C365.932 535.11 364.219 533.832 362.153 532.86C360.087 531.889 357.618 531.429 354.746 531.429C350.916 531.429 347.691 532.247 345.02 533.883C342.4 535.519 341.09 537.666 341.09 540.376C341.09 542.523 341.947 544.363 343.66 545.846C345.373 547.329 348.296 548.556 352.428 549.425L368.603 552.748C377.27 554.537 383.77 557.451 388.003 561.49C392.286 565.478 394.403 570.744 394.403 577.288C394.403 583.218 392.689 588.433 389.263 592.932C385.836 597.431 381.15 600.908 375.204 603.413C369.258 605.918 362.405 607.145 354.645 607.145C342.803 607.145 333.431 604.64 326.427 599.63C319.422 594.619 315.341 587.769 314.131 579.128L338.47 577.85C339.226 581.531 340.989 584.292 343.811 586.184C346.633 588.075 350.261 589.047 354.695 589.047C359.13 589.047 362.506 588.178 365.176 586.491C367.847 584.803 369.157 582.554 369.208 579.844C369.208 577.544 368.2 575.703 366.335 574.22C364.471 572.738 361.599 571.613 357.719 570.846L342.249 567.728C333.532 565.938 327.031 562.871 322.798 558.525C318.566 554.179 316.449 548.607 316.449 541.858C316.449 536.03 318.011 531.02 321.136 526.827C324.26 522.635 328.644 519.363 334.338 517.114C340.032 514.813 346.683 513.688 354.292 513.688C365.58 513.688 374.448 516.091 380.949 520.948C387.449 525.805 391.228 532.349 392.286 540.682L392.387 540.58Z" fill="#005757"/>
<path d="M484.299 540.58L461.623 542.012C461.22 540.069 460.414 538.279 459.104 536.695C457.844 535.11 456.131 533.832 454.065 532.86C451.999 531.889 449.53 531.429 446.657 531.429C442.828 531.429 439.603 532.247 436.932 533.883C434.312 535.519 433.002 537.666 433.002 540.376C433.002 542.523 433.858 544.363 435.572 545.846C437.285 547.329 440.207 548.556 444.339 549.425L460.515 552.748C469.182 554.537 475.682 557.451 479.915 561.49C484.198 565.478 486.314 570.744 486.314 577.288C486.314 583.218 484.601 588.433 481.175 592.932C477.748 597.431 473.062 600.908 467.116 603.413C461.17 605.918 454.317 607.145 446.557 607.145C434.715 607.145 425.342 604.64 418.338 599.63C411.334 594.619 407.252 587.769 406.043 579.128L430.381 577.85C431.137 581.531 432.901 584.292 435.723 586.184C438.545 588.075 442.173 589.047 446.607 589.047C451.041 589.047 454.417 588.178 457.088 586.491C459.759 584.803 461.069 582.554 461.119 579.844C461.119 577.544 460.111 575.703 458.247 574.22C456.383 572.738 453.51 571.613 449.63 570.846L434.161 567.728C425.443 565.938 418.943 562.871 414.71 558.525C410.477 554.179 408.361 548.607 408.361 541.858C408.361 536.03 409.923 531.02 413.047 526.827C416.171 522.635 420.555 519.363 426.249 517.114C431.943 514.813 438.595 513.688 446.204 513.688C457.491 513.688 466.36 516.091 472.86 520.948C479.36 525.805 483.14 532.349 484.198 540.682L484.299 540.58Z" fill="#005757"/>
<path d="M501.985 605.305V514.711H526.727V605.305H501.985ZM505.513 503.054L517.808 484.547H540.685L522.948 503.054H505.462H505.513Z" fill="#005757"/>
<path d="M629.724 514.762L598.533 605.356H570.617L539.425 514.762H565.578L584.121 579.589H585.028L603.521 514.762H629.724Z" fill="#005757"/>
<path d="M721.081 566.449V559.548C721.081 551.828 720.023 545.13 717.907 539.353C715.79 533.576 712.817 528.821 708.988 524.987C705.158 521.153 700.724 518.29 695.634 516.398C690.545 514.506 685.052 513.535 679.157 513.535C670.389 513.535 662.78 515.529 656.28 519.465C649.779 523.402 644.74 528.872 641.213 535.928C637.635 542.932 635.872 551.112 635.872 560.468C635.872 569.824 637.635 578.259 641.213 585.263C644.791 592.217 649.88 597.636 656.481 601.419C663.082 605.202 670.994 607.094 680.165 607.094C687.522 607.094 694.022 605.918 699.666 603.617C705.309 601.317 709.945 598.096 713.523 593.955C717.101 589.814 719.469 584.957 720.628 579.333L697.751 577.799C696.894 580.049 695.634 581.991 694.022 583.576C692.409 585.161 690.444 586.337 688.126 587.104C685.859 587.871 683.339 588.28 680.568 588.28C676.436 588.28 672.858 587.411 669.835 585.621C666.811 583.832 664.493 581.327 662.831 578.055C661.168 574.783 660.361 570.948 660.361 566.449L721.132 566.398L721.081 566.449ZM662.78 541.96C664.443 539.046 666.66 536.695 669.583 534.956C672.455 533.218 675.781 532.349 679.56 532.349C683.339 532.349 686.312 533.167 689.033 534.752C691.754 536.337 693.921 538.535 695.433 541.347C696.995 544.108 697.751 547.329 697.751 550.959H660.311C660.462 547.687 661.268 544.721 662.78 542.012V541.96Z" fill="#005757"/>
<path d="M761.998 484.547V605.305H737.256V484.547H761.998Z" fill="#005757"/>
</svg>
