<svg width="525" height="207" viewBox="0 0 525 207" fill="none" xmlns="http://www.w3.org/2000/svg">
<rect width="524" height="207" transform="translate(0.178345)" fill="white"/>
<path d="M95.0471 54.8562C100.132 53.1363 105.591 52.2389 111.274 52.2389C136.101 52.2389 156.815 69.8868 161.526 93.2926L196.672 86.1138C188.596 46.3314 153.45 16.345 111.274 16.345C101.628 16.345 92.3551 17.9153 83.6807 20.8317L95.0471 54.8562Z" fill="#FFF100"/>
<path d="M53.5448 168.819L77.3245 141.899C66.7059 132.477 60.0506 118.792 60.0506 103.463C60.0506 88.2077 66.7059 74.4483 77.3245 65.1009L53.5448 38.2552C35.523 54.258 24.1566 77.5142 24.1566 103.537C24.1566 129.486 35.523 152.817 53.5448 168.819Z" fill="#00A3DF"/>
<path d="M161.526 113.782C156.74 137.188 136.101 154.761 111.274 154.761C105.591 154.761 100.132 153.864 94.9724 152.144L83.606 186.168C92.2803 189.085 101.628 190.655 111.274 190.655C153.45 190.655 188.596 160.743 196.672 120.961L161.526 113.782Z" fill="#EE4023"/>
<path d="M313.776 137.861C307.943 143.544 300.091 146.984 291.417 146.834C285.435 146.76 279.901 144.965 275.265 141.974L263.599 160.519C271.601 165.529 280.948 168.52 291.118 168.67C305.849 168.894 319.31 163.062 329.106 153.565L313.776 137.861ZM292.688 62.2594C263.375 61.8107 239.146 85.2913 238.698 114.605C238.548 125.597 241.689 135.917 247.297 144.442L343.613 103.238C338.229 80.1316 317.59 62.708 292.688 62.2594ZM260.758 118.792C260.608 117.596 260.533 116.325 260.533 115.053C260.832 97.7794 275.04 83.9453 292.314 84.2444C301.736 84.394 310.112 88.6564 315.72 95.3865L260.758 118.792ZM373.898 38.3301V141.002L391.696 148.405L383.246 168.67L365.598 161.342C361.634 159.622 358.942 157.004 356.923 154.013C354.979 151.022 353.484 146.834 353.484 141.301V38.3301H373.898Z" fill="black"/>
<path d="M438.133 85.8147C441.274 84.7678 444.564 84.2444 448.079 84.2444C463.259 84.2444 475.822 95.0125 478.739 109.295L500.2 104.883C495.265 80.5802 473.803 62.3341 448.079 62.3341C442.172 62.3341 436.488 63.3062 431.254 65.0262L438.133 85.8147ZM412.783 155.284L427.291 138.908C420.785 133.15 416.747 124.775 416.747 115.427C416.747 106.08 420.86 97.7046 427.291 92.0214L412.783 75.6448C401.791 85.3661 394.836 99.6488 394.836 115.502C394.836 131.355 401.791 145.563 412.783 155.284ZM478.739 121.783C475.822 136.066 463.184 146.834 448.079 146.834C444.639 146.834 441.274 146.236 438.133 145.189L431.179 165.978C436.488 167.773 442.172 168.745 448.079 168.745C473.803 168.745 495.265 150.499 500.2 126.195L478.739 121.783Z" fill="black"/>
</svg>
