<svg width="524" height="207" viewBox="0 0 524 207" fill="none" xmlns="http://www.w3.org/2000/svg">
<rect width="524" height="206.324" fill="white"/>
<path d="M190.293 189.923V178.341C190.293 173.9 187.588 171.005 183.149 171.005C180.817 171.005 178.322 171.779 176.583 174.268C175.23 172.143 173.318 171.005 170.404 171.005C169.32 170.959 168.242 171.181 167.265 171.653C166.288 172.124 165.444 172.831 164.808 173.709V171.378H161.138V189.909H164.808V179.306C164.808 176.044 166.738 174.482 169.443 174.482C172.148 174.482 173.691 176.221 173.691 179.306V189.923H177.361V179.306C177.361 176.044 179.292 174.482 181.997 174.482C184.702 174.482 186.245 176.221 186.245 179.306V189.923H190.293ZM250.553 171.583H243.791V165.99H240.13V171.583H236.269V174.846H240.13V183.552C240.13 187.798 241.674 190.31 246.309 190.31C248.065 190.273 249.786 189.809 251.322 188.958L250.161 185.696C249.119 186.347 247.911 186.682 246.682 186.661C244.752 186.661 243.786 185.5 243.786 183.571V174.697H250.548V171.607L250.553 171.583ZM284.931 171.005C283.931 170.983 282.943 171.22 282.063 171.694C281.182 172.168 280.44 172.862 279.909 173.709V171.378H276.239V189.909H279.909V179.502C279.909 176.412 281.452 174.482 283.966 174.482C284.814 174.517 285.656 174.646 286.475 174.869L287.636 171.392C286.75 171.169 285.844 171.039 284.931 171.005ZM232.977 172.935C231.046 171.583 228.341 171.005 225.445 171.005C220.81 171.005 217.914 173.131 217.914 176.799C217.914 179.889 220.04 181.622 224.093 182.205L226.024 182.396C228.15 182.783 229.502 183.557 229.502 184.521C229.502 185.873 227.959 186.852 225.058 186.852C222.843 186.897 220.674 186.22 218.879 184.922L216.949 187.816C219.653 189.746 222.936 190.147 224.876 190.147C230.286 190.147 233.182 187.639 233.182 184.163C233.182 180.9 230.85 179.339 226.807 178.756L224.876 178.565C223.137 178.374 221.612 177.791 221.612 176.635C221.612 175.284 223.156 174.305 225.282 174.305C227.614 174.305 229.917 175.27 231.079 175.848L232.977 172.935ZM288.988 180.658C288.988 186.251 292.658 190.31 298.646 190.31C301.351 190.31 303.281 189.732 305.212 188.185L303.281 185.29C301.914 186.397 300.214 187.009 298.455 187.029C295.19 187.029 292.658 184.521 292.658 180.853C292.658 177.185 295.158 174.697 298.455 174.697C300.214 174.716 301.914 175.329 303.281 176.435L305.212 173.541C303.281 171.998 301.351 171.416 298.646 171.416C292.849 171.029 288.988 175.083 288.988 180.681V180.658ZM263.107 171.005C257.697 171.005 254.027 174.864 254.027 180.658C254.027 186.451 257.888 190.31 263.489 190.31C266.214 190.367 268.874 189.482 271.02 187.803L269.09 185.099C267.538 186.301 265.643 186.977 263.68 187.029C261.171 187.029 258.466 185.486 258.084 182.205H271.799V180.662C271.799 174.869 268.32 171.01 263.107 171.01V171.005ZM262.915 174.482C265.62 174.482 267.551 176.221 267.742 179.115H257.702C258.28 176.412 260.033 174.482 262.915 174.482ZM212.892 180.658V171.392H209.221V173.723C207.869 171.984 205.957 171.019 203.234 171.019C198.02 171.019 194.154 175.074 194.154 180.672C194.154 186.269 198.015 190.324 203.234 190.324C205.938 190.324 207.869 189.359 209.221 187.621V189.951H212.892V180.658ZM198.02 180.658C198.02 177.181 200.147 174.482 203.817 174.482C207.295 174.482 209.413 177.185 209.413 180.658C209.413 184.326 207.081 186.833 203.817 186.833C200.147 187.024 198.02 184.13 198.02 180.658ZM340.756 171.005C339.756 170.983 338.768 171.22 337.888 171.694C337.007 172.168 336.265 172.862 335.734 173.709V171.378H332.064V189.909H335.729V179.502C335.729 176.412 337.273 174.482 339.786 174.482C340.634 174.517 341.476 174.646 342.295 174.869L343.456 171.392C342.571 171.169 341.664 171.039 340.751 171.005H340.756ZM326.463 180.658V171.392H322.793V173.723C321.44 171.984 319.528 171.019 316.805 171.019C311.591 171.019 307.726 175.074 307.726 180.672C307.726 186.269 311.587 190.324 316.805 190.324C319.51 190.324 321.44 189.359 322.793 187.621V189.951H326.463V180.658ZM311.591 180.658C311.591 177.181 313.718 174.482 317.388 174.482C320.867 174.482 322.984 177.185 322.984 180.658C322.984 184.326 320.652 186.833 317.388 186.833C313.718 187.024 311.591 184.13 311.591 180.658ZM363.742 180.658V164.056H360.072V173.709C358.719 171.97 356.807 171.005 354.084 171.005C348.87 171.005 345.004 175.06 345.004 180.658C345.004 186.255 348.866 190.31 354.084 190.31C356.789 190.31 358.719 189.345 360.072 187.607V189.937H363.742V180.658ZM348.87 180.658C348.87 177.181 350.997 174.482 354.667 174.482C358.146 174.482 360.263 177.185 360.263 180.658C360.263 184.326 357.931 186.833 354.667 186.833C350.992 187.029 348.866 184.135 348.866 180.658H348.87Z" fill="black"/>
<path d="M295.75 30.8629H228.728V140.119H295.75V30.8629Z" fill="#FF5F00"/>
<path d="M235.49 85.491C235.492 74.9805 237.874 64.6067 242.456 55.1464C247.038 45.6861 253.703 37.3844 261.95 30.863C251.693 22.8033 239.374 17.7905 226.402 16.3976C213.429 15.0047 200.326 17.2879 188.59 22.9862C176.855 28.6846 166.96 37.568 160.038 48.6212C153.115 59.6743 149.444 72.4511 149.444 85.491C149.444 98.5309 153.115 111.308 160.038 122.361C166.96 133.414 176.855 142.297 188.59 147.996C200.326 153.694 213.429 155.977 226.402 154.584C239.374 153.191 251.693 148.179 261.95 140.119C253.703 133.598 247.038 125.296 242.456 115.836C237.874 106.375 235.492 96.0015 235.49 85.491Z" fill="#EB001B"/>
<path d="M374.556 85.4909C374.566 98.5213 370.905 111.291 363.994 122.34C357.083 133.389 347.2 142.271 335.475 147.97C323.75 153.67 310.657 155.956 297.694 154.567C284.73 153.179 272.419 148.172 262.169 140.119C270.418 133.599 277.084 125.298 281.667 115.837C286.249 106.377 288.63 96.0019 288.63 85.4909C288.63 74.98 286.249 64.6053 281.667 55.1447C277.084 45.684 270.418 37.3827 262.169 30.8629C272.419 22.8102 284.73 17.8033 297.694 16.4148C310.657 15.0263 323.75 17.3123 335.475 23.0114C347.2 28.7104 357.083 37.5924 363.994 48.6415C370.905 59.6905 374.566 72.4605 374.556 85.4909Z" fill="#F79E1B"/>
</svg>
