<svg width="524" height="207" viewBox="0 0 524 207" fill="none" xmlns="http://www.w3.org/2000/svg">
<rect width="524" height="206.31" fill="white"/>
<path d="M220.006 178.761V78.7956C220.006 60.4018 234.916 45.4912 253.309 45.4912L282.825 45.5357C301.164 45.5721 316.013 60.4499 316.013 78.7904V100.068C316.013 118.462 301.102 133.373 282.709 133.373H241.002" stroke="#939598" stroke-width="6.15705" stroke-miterlimit="10" stroke-linecap="round" stroke-linejoin="round"/>
<path d="M324.261 45.478H337.064C344.613 45.478 350.731 51.5971 350.731 59.1458V133.82" stroke="#939598" stroke-width="6.15705" stroke-miterlimit="10" stroke-linecap="round" stroke-linejoin="round"/>
<path d="M347.986 33.909L342.18 28.1023C340.739 26.6617 340.739 24.3257 342.18 22.8852L347.982 17.0821C349.426 15.6393 351.765 15.6393 353.207 17.0821L359.009 22.8852C360.451 24.3257 360.451 26.6617 359.009 28.1023L353.203 33.909C351.763 35.3496 349.427 35.3496 347.986 33.909Z" fill="#32BCAD"/>
<path d="M375.294 45.4114H387.991C394.523 45.4114 400.788 48.0064 405.406 52.6244L435.104 82.323C438.951 86.1703 445.188 86.1703 449.035 82.323L478.625 52.7331C483.244 48.1152 489.508 45.5201 496.04 45.5201H506.363" stroke="#939598" stroke-width="6.15705" stroke-miterlimit="10" stroke-linecap="round" stroke-linejoin="round"/>
<path d="M375.294 133.166H387.991C394.523 133.166 400.788 130.571 405.406 125.953L435.104 96.2546C438.951 92.4073 445.188 92.4073 449.035 96.2546L478.625 125.845C483.244 130.462 489.508 133.058 496.04 133.058H506.363" stroke="#939598" stroke-width="6.15705" stroke-miterlimit="10" stroke-linecap="round" stroke-linejoin="round"/>
<path d="M144.306 152.14C137.934 152.14 131.94 149.658 127.434 145.154L103.072 120.792C101.362 119.077 98.3806 119.082 96.6708 120.792L72.2199 145.243C67.7136 149.747 61.72 152.229 55.3476 152.229H50.5466L81.4019 183.083C91.0377 192.719 106.661 192.719 116.298 183.083L147.241 152.14H144.306Z" fill="#32BCAD"/>
<path d="M55.3472 65.9668C61.7196 65.9668 67.7132 68.448 72.2195 72.9521L96.6704 97.4073C98.4313 99.169 101.307 99.1756 103.072 97.4053L127.434 73.0412C131.94 68.5371 137.934 66.0559 144.306 66.0559H147.24L116.298 35.1131C106.661 25.4765 91.0373 25.4765 81.4015 35.1131L50.5476 65.9669L55.3472 65.9668Z" fill="#32BCAD"/>
<path d="M172.835 91.6499L154.136 72.951C153.724 73.1159 153.279 73.2188 152.808 73.2188H144.306C139.911 73.2188 135.608 75.0017 132.502 78.1097L108.141 102.472C105.861 104.751 102.866 105.892 99.8727 105.892C96.8771 105.892 93.8836 104.751 91.6045 102.474L67.1514 78.0207C64.0455 74.9119 59.7428 73.1298 55.3474 73.1298H44.8935C44.4476 73.1298 44.031 73.0247 43.6376 72.8766L24.8644 91.6499C15.2278 101.286 15.2278 116.909 24.8644 126.546L43.6369 145.318C44.0309 145.17 44.4476 145.065 44.8935 145.065H55.3474C59.7428 145.065 64.0455 143.283 67.1514 140.175L91.6023 115.724C96.0217 111.308 103.726 111.307 108.141 115.726L132.502 140.086C135.608 143.194 139.911 144.977 144.306 144.977H152.808C153.279 144.977 153.724 145.08 154.136 145.245L172.835 126.546C182.471 116.909 182.471 101.286 172.835 91.6499Z" fill="#32BCAD"/>
</svg>
