<svg width="524" height="206" viewBox="0 0 524 206" fill="none" xmlns="http://www.w3.org/2000/svg">
<rect width="524" height="206" fill="white"/>
<path d="M200.878 168.852L224.163 37.876H260.545L237.988 168.852H200.878Z" fill="#3C58BF"/>
<path d="M200.878 168.852L230.712 37.876H260.545L237.988 168.852H200.878Z" fill="#293688"/>
<path d="M369.691 39.3312C362.415 36.4206 350.773 33.51 336.22 33.51C299.838 33.51 273.642 51.7011 273.642 77.8963C273.642 97.5427 291.833 107.73 306.386 114.278C320.939 120.827 325.305 125.193 325.305 131.014C325.305 139.746 313.663 144.112 303.476 144.112C288.923 144.112 280.919 141.929 268.549 136.835L263.455 134.653L258.362 164.486C267.094 168.124 283.102 171.762 299.838 171.762C338.403 171.762 363.87 153.571 363.87 125.921C363.87 110.64 354.411 98.998 332.582 89.5386C319.484 82.9898 311.48 79.3516 311.48 72.8028C311.48 66.9816 318.029 61.1605 332.582 61.1605C344.951 61.1605 353.683 63.3434 360.232 66.254L363.87 67.7093L369.691 39.3312Z" fill="#3C58BF"/>
<path d="M369.691 39.3312C362.415 36.4206 350.773 33.51 336.22 33.51C299.838 33.51 280.191 51.7011 280.191 77.8963C280.191 97.5427 291.833 107.73 306.386 114.278C320.939 120.827 325.305 125.193 325.305 131.014C325.305 139.746 313.663 144.112 303.476 144.112C288.923 144.112 280.919 141.929 268.549 136.835L263.455 134.653L258.362 164.486C267.094 168.124 283.102 171.762 299.838 171.762C338.403 171.762 363.87 153.571 363.87 125.921C363.87 110.64 354.411 98.998 332.582 89.5386C319.484 82.9898 311.48 79.3516 311.48 72.8028C311.48 66.9816 318.029 61.1605 332.582 61.1605C344.951 61.1605 353.683 63.3434 360.232 66.254L363.87 67.7093L369.691 39.3312Z" fill="#293688"/>
<path d="M432.269 37.876C423.537 37.876 416.988 38.6036 413.35 47.3353L358.777 168.852H398.07L405.346 147.023H451.915L456.281 168.852H491.208L460.647 37.876H432.269ZM415.533 125.193C417.716 118.644 430.086 86.6281 430.086 86.6281C430.086 86.6281 432.997 78.624 435.179 73.5305L437.362 85.9005C437.362 85.9005 444.639 118.644 446.094 125.921H415.533V125.193Z" fill="#3C58BF"/>
<path d="M441.001 37.876C432.269 37.876 425.72 38.6036 422.082 47.3353L358.777 168.852H398.07L405.346 147.023H451.915L456.281 168.852H491.208L460.647 37.876H441.001ZM415.533 125.193C418.444 117.917 430.086 86.6281 430.086 86.6281C430.086 86.6281 432.997 78.624 435.179 73.5305L437.362 85.9005C437.362 85.9005 444.639 118.644 446.094 125.921H415.533V125.193Z" fill="#293688"/>
<path d="M133.935 129.559L130.297 110.64C123.748 88.8109 102.646 64.7987 79.3616 53.1564L112.106 169.579H151.398L210.337 38.6035H171.045L133.935 129.559Z" fill="#3C58BF"/>
<path d="M133.935 129.559L130.297 110.64C123.748 88.8109 102.646 64.7987 79.3616 53.1564L112.106 169.579H151.398L210.337 38.6035H178.321L133.935 129.559Z" fill="#293688"/>
<path d="M32.7922 37.876L39.341 39.3313C85.9102 50.2459 117.927 77.8964 130.297 110.64L117.199 48.7906C115.016 40.0589 108.467 37.876 100.463 37.876H32.7922Z" fill="#FFBC00"/>
<path d="M32.7922 37.876C79.3614 48.7906 117.927 77.1688 130.297 109.913L117.927 58.25C115.744 49.5183 108.467 44.4248 100.463 44.4248L32.7922 37.876Z" fill="#F7981D"/>
<path d="M32.7922 37.876C79.3614 48.7906 117.927 77.1688 130.297 109.913L121.565 81.5346C119.382 72.8029 116.471 64.0712 106.284 60.4329L32.7922 37.876Z" fill="#ED7C00"/>
<path d="M170.317 125.193L145.577 100.453L133.935 128.104L131.024 109.913C124.475 88.0833 103.374 64.071 80.0891 52.4287L112.833 168.852H152.126L170.317 125.193Z" fill="#051244"/>
<path d="M237.988 168.852L206.699 136.836L200.878 168.852H237.988Z" fill="#051244"/>
<path d="M321.667 123.738C324.577 126.648 326.033 128.831 325.305 131.742C325.305 140.474 313.663 144.84 303.476 144.84C288.923 144.84 280.919 142.657 268.549 137.563L263.455 135.38L258.362 165.214C267.094 168.852 283.102 172.49 299.838 172.49C323.122 172.49 342.041 165.941 352.956 154.299L321.667 123.738Z" fill="#051244"/>
<path d="M363.87 168.852H398.07L405.346 147.022H451.915L456.281 168.852H491.208L478.838 115.734L435.179 73.5304L437.362 85.1727C437.362 85.1727 444.639 117.917 446.094 125.193H415.533C418.444 117.917 430.086 86.628 430.086 86.628C430.086 86.628 432.997 78.6239 435.179 73.5304" fill="#051244"/>
</svg>
